
<svg data-v-423bf9ae="" xmlns="http://www.w3.org/2000/svg" viewBox="0 0 368.4313648849707 163" class="iconAbove"><!----><!----><!----><g data-v-423bf9ae="" id="9b56f83e-793e-47df-866b-961404a4a38e" fill="#321926" transform="matrix(4.850333982695947,0,0,4.850333982695947,-3.8802659282037837,79.76689802372618)"><path d="M7.29 17.16C8.30 17.16 8.90 16.63 8.90 15.93C8.90 15.50 8.61 15.20 8.15 15.18C8.09 15.81 7.36 16.16 6.48 16.16C5.56 16.17 4.59 15.69 3.85 15.12C4.09 15.19 4.35 15.20 4.61 15.20C6.94 15.20 8.41 13.47 8.41 10.16C8.41 6.78 7.01 5.12 4.61 5.12C2.21 5.12 0.80 6.78 0.80 10.18C0.80 12.75 1.74 14.24 3.14 15.26C4.31 16.13 5.92 17.18 7.29 17.16ZM4.58 14.66C2.93 14.66 2.27 13.06 2.27 10.36C2.27 7.20 3.00 5.67 4.61 5.67C6.15 5.67 6.96 7.04 6.96 10.16C6.96 13.31 6.13 14.66 4.58 14.66ZM16.58 14C16.48 14.17 16.31 14.20 16.20 14.20C15.93 14.20 15.82 14 15.82 13.48L15.81 8.46C15.81 7.98 15.48 7.70 15.08 7.70C14.71 7.70 14.46 7.88 14.35 7.98C14.56 8.57 14.56 9.06 14.56 11.23C14.56 13.61 13.61 14.55 12.73 14.55C11.73 14.55 11.41 13.85 11.41 12.12L11.41 8.40C11.41 7.95 11.10 7.70 10.68 7.70C10.35 7.70 10.12 7.85 9.95 7.99C10.11 8.44 10.15 9.07 10.15 9.55L10.15 12.29C10.15 14.43 10.85 15.22 12.35 15.22C13.47 15.22 14.31 14.59 14.69 13.48L14.69 13.66C14.69 14.67 15.11 15.16 15.85 15.16C16.41 15.16 16.73 14.88 16.73 14.46C16.73 14.31 16.69 14.15 16.58 14ZM21.25 7.70C20.36 7.70 19.71 8.25 19.39 9.28C19.40 8.23 18.97 7.71 18.24 7.71C17.68 7.71 17.35 8.01 17.35 8.43C17.35 8.60 17.40 8.74 17.51 8.89C17.60 8.72 17.78 8.69 17.88 8.69C18.14 8.69 18.27 8.89 18.27 9.41L18.27 14.41C18.27 14.88 18.61 15.16 19.00 15.16C19.36 15.15 19.63 14.98 19.74 14.87C19.53 14.29 19.53 13.80 19.53 11.66C19.53 9.30 20.20 8.37 20.93 8.37C21.42 8.37 21.70 8.64 21.70 9.21C21.70 9.53 21.66 9.77 21.43 10.11C21.55 10.23 21.74 10.30 22.01 10.29C22.48 10.26 22.89 9.83 22.89 9.18C22.89 8.25 22.20 7.70 21.25 7.70ZM30.44 13.92C30.32 14.10 30.13 14.18 29.99 14.18C29.67 14.18 29.50 13.94 29.50 13.44L29.50 10.72C29.50 8.64 28.60 7.70 26.64 7.70C24.96 7.70 23.90 8.29 23.90 9.39C23.90 10.04 24.32 10.64 25.02 10.64C25.28 10.64 25.58 10.56 25.76 10.35C25.33 10.18 25.17 9.72 25.17 9.35C25.17 8.50 25.87 8.23 26.53 8.23C27.75 8.23 28.20 9.04 28.20 10.65L28.20 11.00C27.52 10.98 26.70 11.05 25.91 11.26C24.61 11.62 23.58 12.36 23.58 13.55C23.58 14.55 24.25 15.18 25.34 15.18C26.63 15.18 27.69 14.34 28.27 13.09L28.27 13.31C28.27 14.62 28.71 15.16 29.55 15.16C30.14 15.16 30.59 14.83 30.59 14.39C30.59 14.25 30.55 14.08 30.44 13.92ZM25.94 14.31C25.23 14.34 24.96 13.82 24.96 13.27C24.96 12.57 25.42 12.07 26.18 11.77C26.73 11.54 27.59 11.45 28.24 11.48C28.21 12.96 26.96 14.27 25.94 14.31ZM37.66 13.34L37.66 10.60C37.66 8.69 36.95 7.70 35.41 7.70C34.26 7.70 33.42 8.32 33.03 9.39L33.03 9.23C33.03 8.22 32.61 7.71 31.86 7.71C31.30 7.71 30.97 8.01 30.97 8.43C30.97 8.60 31.02 8.74 31.14 8.89C31.22 8.72 31.40 8.69 31.50 8.69C31.77 8.69 31.88 8.89 31.89 9.41L31.89 14.43C31.89 14.91 32.20 15.19 32.63 15.19C32.98 15.19 33.25 15.02 33.36 14.91C33.15 14.34 33.15 13.83 33.15 11.66C33.15 9.32 34.13 8.41 35.03 8.41C36.06 8.41 36.39 9.24 36.40 10.77L36.40 14.49C36.40 14.92 36.72 15.19 37.14 15.19C37.46 15.19 37.70 15.05 37.87 14.90C37.70 14.45 37.67 13.82 37.66 13.34ZM49.67 14.18L46.93 5.57C46.83 5.22 46.52 5.12 46.19 5.12C45.84 5.12 45.49 5.18 45.12 5.32L42.21 13.92C42.13 14.17 42.06 14.43 42.06 14.62C42.06 15.01 42.29 15.18 42.78 15.18C43.09 15.18 43.29 15.12 43.48 15.05C43.41 14.97 43.39 14.85 43.39 14.70C43.39 14.55 43.43 14.38 43.47 14.21L44.11 11.98L47.68 11.98L48.48 14.67C48.57 15.01 48.89 15.18 49.28 15.18C49.69 15.18 49.90 15.04 50.04 14.88C49.87 14.70 49.74 14.41 49.67 14.18ZM44.34 11.24L45.88 5.95L47.46 11.24ZM57.54 14C57.44 14.17 57.27 14.20 57.16 14.20C56.90 14.20 56.78 14 56.78 13.48L56.77 8.46C56.77 7.98 56.45 7.70 56.04 7.70C55.68 7.70 55.43 7.88 55.31 7.98C55.52 8.57 55.52 9.06 55.52 11.23C55.52 13.61 54.57 14.55 53.69 14.55C52.70 14.55 52.37 13.85 52.37 12.12L52.37 8.40C52.37 7.95 52.07 7.70 51.65 7.70C51.31 7.70 51.09 7.85 50.92 7.99C51.07 8.44 51.11 9.07 51.11 9.55L51.11 12.29C51.11 14.43 51.81 15.22 53.31 15.22C54.43 15.22 55.27 14.59 55.65 13.48L55.65 13.66C55.65 14.67 56.07 15.16 56.81 15.16C57.37 15.16 57.69 14.88 57.69 14.46C57.69 14.31 57.65 14.15 57.54 14ZM65.48 13.96C65.38 14.14 65.21 14.17 65.10 14.17C64.82 14.17 64.65 13.94 64.65 13.44L64.67 5.49C64.67 5.04 64.34 4.79 63.92 4.79C63.56 4.79 63.31 4.97 63.20 5.08C63.36 5.68 63.41 6.44 63.41 7.14L63.41 8.76C63.13 8.09 62.47 7.70 61.53 7.70C59.63 7.70 58.58 9.21 58.58 11.77C58.58 13.41 59.07 15.20 61.00 15.20C62.23 15.20 63.04 14.48 63.46 13.30C63.49 14.45 63.87 15.13 64.69 15.13C65.23 15.13 65.63 14.85 65.63 14.43C65.63 14.29 65.59 14.13 65.48 13.96ZM61.35 14.45C60.14 14.45 59.93 13.16 59.93 11.73C59.93 9.56 60.56 8.41 61.77 8.41C63.11 8.41 63.39 9.60 63.39 10.72C63.39 12.71 62.66 14.45 61.35 14.45ZM67.79 6.69C68.24 6.69 68.60 6.33 68.60 5.88C68.60 5.42 68.24 5.05 67.79 5.05C67.33 5.05 66.96 5.42 66.96 5.88C66.96 6.33 67.33 6.69 67.79 6.69ZM68.47 13.34L68.46 8.39C68.46 7.95 68.17 7.70 67.75 7.70C67.38 7.70 67.14 7.88 67.02 7.98C67.19 8.43 67.21 9.00 67.21 9.55L67.23 14.49C67.23 14.92 67.54 15.19 67.94 15.19C68.31 15.19 68.56 15.01 68.67 14.90C68.50 14.45 68.47 13.89 68.47 13.34ZM73.51 15.20C75.57 15.20 76.76 13.82 76.76 11.47C76.76 9.10 75.57 7.70 73.51 7.70C71.46 7.70 70.25 9.10 70.25 11.47C70.25 13.82 71.46 15.20 73.51 15.20ZM73.51 14.67C72.27 14.67 71.61 13.54 71.61 11.47C71.61 9.37 72.27 8.23 73.51 8.23C74.75 8.23 75.40 9.37 75.40 11.47C75.40 13.54 74.75 14.67 73.51 14.67Z"></path></g><defs data-v-423bf9ae=""><linearGradient data-v-423bf9ae="" gradientTransform="rotate(25)" id="c422bf22-7723-4b76-b9c5-99a1685993e6" x1="0%" y1="0%" x2="100%" y2="0%"><stop data-v-423bf9ae="" offset="0%" style="stop-color: rgb(212, 24, 234); stop-opacity: 1;"></stop><stop data-v-423bf9ae="" offset="100%" style="stop-color: rgb(236, 208, 98); stop-opacity: 1;"></stop></linearGradient></defs><g data-v-423bf9ae="" id="c40ebda1-7dea-4ada-b006-f8e9d63df2aa" transform="matrix(1.3278504511311033,0,0,1.3278504511311033,118.6072727355627,-21.281752885415486)" stroke="none" fill="url(#c422bf22-7723-4b76-b9c5-99a1685993e6)"><path style="line-height:normal;text-indent:0;text-align:start;text-decoration-line:none;text-decoration-style:solid;text-decoration-color:#000;text-transform:none;block-progression:tb;isolation:auto;mix-blend-mode:normal" d="M78.375 16.352L49.983 31.576 17.635 16.275a.763.763 0 0 0-1.077.553l-.682 3.769-5.793-3.857a.764.764 0 0 0-.38-.131.763.763 0 0 0-.837.618l-3.82 19.2c-.116.58-.03.716.463 1.021l39.337 24.337-33.662 20.678c-.654.403-.37 1.412.4 1.413h5.558c.106.02.215.017.32-.01a.765.765 0 0 0 .454-.23l31.522-19.013 30.934 19.138a.763.763 0 0 0 .533.113h5.684c.766 0 1.052-1.006.401-1.411L53.895 61.936 94.63 37.365a.763.763 0 0 0 .316-.937l-7.584-19.062c-.39-.979-.761-.918-1.423-.473L80.87 20.3l-1.254-3.467c-.322-.889-.574-.84-1.242-.48zm.06 1.702l5.633 15.575-33.3 18.767V32.888zm-60.551.026L49.24 32.916v19.472l-34.06-19.355c.918-4.995 1.804-9.979 2.703-14.953zm68.309.483l7.095 17.828C78.68 45.2 64.044 54.033 49.448 62.836L6.62 36.341l3.527-17.724 5.433 3.616-2.82 15.591c-.113.628-.1.86.285 1.075l34.618 19.335a.763.763 0 0 0 1.056-.328l1.262-2.539c.422.85.811 1.72 1.268 2.549.255.463.639.548 1.05.318L86.917 38.9a.763.763 0 0 0 .346-.926c-1.947-5.404-3.9-10.783-5.857-16.194z" color="#000" font-weight="400" font-family="sans-serif" white-space="normal" overflow="visible"></path></g></svg>